<svg width="160" height="160" viewBox="0 0 160 160" fill="none" xmlns="http://www.w3.org/2000/svg">
<circle cx="79" cy="79" r="65" fill="#F1F5F9"/>
<path d="M67 106H95L99 128H63L67 106Z" fill="#64748B"/>
<g filter="url(#filter0_d_4074_12657)">
<path d="M25 34C25 31.7909 26.7909 30 29 30H129C131.209 30 133 31.7909 133 34V107C133 109.209 131.209 111 129 111H29C26.7909 111 25 109.209 25 107V34Z" fill="white"/>
</g>
<path d="M29 35C29 34.4477 29.4477 34 30 34H128C128.552 34 129 34.4477 129 35V93H29V35Z" fill="#E2E8F0"/>
<g filter="url(#filter1_d_4074_12657)">
<path d="M56 131C56 129.343 57.3431 128 59 128H103C104.657 128 106 129.343 106 131C106 132.657 104.657 134 103 134H59C57.3431 134 56 132.657 56 131Z" fill="white"/>
</g>
<path d="M33 39C33 38.4477 33.4477 38 34 38H60C60.5523 38 61 38.4477 61 39V89C61 89.5523 60.5523 90 60 90H34C33.4477 90 33 89.5523 33 89V39Z" fill="#93C5FD"/>
<path d="M65 39C65 38.4477 65.4477 38 66 38H124C124.552 38 125 38.4477 125 39V89C125 89.5523 124.552 90 124 90H66C65.4477 90 65 89.5523 65 89V39Z" fill="white"/>
<rect x="38" y="43" width="18" height="4" rx="2" fill="white"/>
<rect x="38" y="51" width="18" height="4" rx="2" fill="white"/>
<rect x="38" y="59" width="18" height="4" rx="2" fill="white"/>
<rect x="38" y="81" width="18" height="4" rx="2" fill="#3B82F6"/>
<rect x="73" y="55" width="8" height="15" rx="1" fill="#64748B"/>
<rect x="85" y="45" width="8" height="25" rx="1" fill="#64748B"/>
<rect x="97" y="53" width="8" height="17" rx="1" fill="#64748B"/>
<rect x="109" y="47" width="8" height="23" rx="1" fill="#64748B"/>
<path d="M93 75C93 74.4477 93.4477 74 94 74H117C117.552 74 118 74.4477 118 75V83C118 83.5523 117.552 84 117 84H94C93.4477 84 93 83.5523 93 83V75Z" fill="#CBD5E1"/>
<path d="M73 76C73 74.8954 73.8954 74 75 74H87C88.1046 74 89 74.8954 89 76C89 77.1046 88.1046 78 87 78H75C73.8954 78 73 77.1046 73 76Z" fill="#CBD5E1"/>
<path d="M73 82C73 80.8954 73.8954 80 75 80H87C88.1046 80 89 80.8954 89 82C89 83.1046 88.1046 84 87 84H75C73.8954 84 73 83.1046 73 82Z" fill="#CBD5E1"/>
<g filter="url(#filter2_d_4074_12657)">
<path d="M140 85C140 82.7909 138.209 81 136 81H108C105.791 81 104 82.7909 104 85V139C104 141.209 105.791 143 108 143H136C138.209 143 140 141.209 140 139V85Z" fill="#64748B"/>
</g>
<path d="M138 89C138 87.3431 136.657 86 135 86H109C107.343 86 106 87.3431 106 89V135C106 136.657 107.343 138 109 138H135C136.657 138 138 136.657 138 135V89Z" fill="white"/>
<path d="M135 131.5C135 130.119 133.881 129 132.5 129H111.5C110.119 129 109 130.119 109 131.5C109 132.881 110.119 134 111.5 134H132.5C133.881 134 135 132.881 135 131.5Z" fill="#93C5FD"/>
<rect width="26" height="3" rx="1.5" transform="matrix(-1 0 0 1 135 124)" fill="#E2E8F0"/>
<path d="M135 92C135 90.8954 134.105 90 133 90H111C109.895 90 109 90.8954 109 92V120C109 121.105 109.895 122 111 122H133C134.105 122 135 121.105 135 120V92Z" fill="#7CE6AA"/>
<rect x="113" y="108" width="4" height="10" rx="1" fill="#1B754F"/>
<rect x="113" y="94" width="7" height="4" rx="2" fill="#1B754F"/>
<rect x="120" y="102" width="4" height="16" rx="1" fill="#1B754F"/>
<rect x="127" y="106" width="4" height="12" rx="1" fill="#1B754F"/>
<defs>
<filter id="filter0_d_4074_12657" x="17" y="25" width="124" height="97" filterUnits="userSpaceOnUse" color-interpolation-filters="sRGB">
<feFlood flood-opacity="0" result="BackgroundImageFix"/>
<feColorMatrix in="SourceAlpha" type="matrix" values="0 0 0 0 0 0 0 0 0 0 0 0 0 0 0 0 0 0 127 0" result="hardAlpha"/>
<feOffset dy="3"/>
<feGaussianBlur stdDeviation="4"/>
<feComposite in2="hardAlpha" operator="out"/>
<feColorMatrix type="matrix" values="0 0 0 0 0.0588235 0 0 0 0 0.0901961 0 0 0 0 0.164706 0 0 0 0.15 0"/>
<feBlend mode="normal" in2="BackgroundImageFix" result="effect1_dropShadow_4074_12657"/>
<feBlend mode="normal" in="SourceGraphic" in2="effect1_dropShadow_4074_12657" result="shape"/>
</filter>
<filter id="filter1_d_4074_12657" x="48" y="123" width="66" height="22" filterUnits="userSpaceOnUse" color-interpolation-filters="sRGB">
<feFlood flood-opacity="0" result="BackgroundImageFix"/>
<feColorMatrix in="SourceAlpha" type="matrix" values="0 0 0 0 0 0 0 0 0 0 0 0 0 0 0 0 0 0 127 0" result="hardAlpha"/>
<feOffset dy="3"/>
<feGaussianBlur stdDeviation="4"/>
<feComposite in2="hardAlpha" operator="out"/>
<feColorMatrix type="matrix" values="0 0 0 0 0.0588235 0 0 0 0 0.0901961 0 0 0 0 0.164706 0 0 0 0.15 0"/>
<feBlend mode="normal" in2="BackgroundImageFix" result="effect1_dropShadow_4074_12657"/>
<feBlend mode="normal" in="SourceGraphic" in2="effect1_dropShadow_4074_12657" result="shape"/>
</filter>
<filter id="filter2_d_4074_12657" x="93.6" y="73.2" width="56.8" height="82.8" filterUnits="userSpaceOnUse" color-interpolation-filters="sRGB">
<feFlood flood-opacity="0" result="BackgroundImageFix"/>
<feColorMatrix in="SourceAlpha" type="matrix" values="0 0 0 0 0 0 0 0 0 0 0 0 0 0 0 0 0 0 127 0" result="hardAlpha"/>
<feOffset dy="2.6"/>
<feGaussianBlur stdDeviation="5.2"/>
<feComposite in2="hardAlpha" operator="out"/>
<feColorMatrix type="matrix" values="0 0 0 0 0.0588235 0 0 0 0 0.0901961 0 0 0 0 0.164706 0 0 0 0.15 0"/>
<feBlend mode="normal" in2="BackgroundImageFix" result="effect1_dropShadow_4074_12657"/>
<feBlend mode="normal" in="SourceGraphic" in2="effect1_dropShadow_4074_12657" result="shape"/>
</filter>
</defs>
</svg>
