<svg width="150" height="155" viewBox="0 0 150 155" fill="none" xmlns="http://www.w3.org/2000/svg">
<path d="M124.115 77.0544C124.115 104.944 102.146 127.515 74.9998 127.515C47.8538 127.515 25.8848 104.944 25.8848 77.0544C25.8848 49.1647 47.8538 26.5938 74.9998 26.5938C102.146 26.5938 124.115 49.1647 124.115 77.0544Z" fill="#F0F1F2"/>
<g filter="url(#filter0_d_2019_62321)">
<path d="M122.133 38.8672H37.4072C36.1813 38.8672 35.1777 40.0946 35.1777 41.5948V112.512C35.1777 114.013 36.1813 115.24 37.4078 115.24H122.133C123.359 115.24 124.363 114.013 124.363 112.512V41.5948C124.363 40.0946 123.359 38.8672 122.133 38.8672Z" fill="white"/>
</g>
<path d="M37.4146 38.8672C35.9545 38.8672 34.7598 40.0946 34.7598 41.5948V112.512C34.7598 114.013 35.9545 115.24 37.4146 115.24H87.8571V38.8672H37.4146Z" fill="#8CC5FA"/>
<path d="M34.7598 82.1597V41.5948C34.7598 40.0946 35.9545 38.8672 37.4146 38.8672H87.8571V84.4175C81.3308 91.154 72.2969 95.3238 62.3153 95.3238C51.2618 95.3238 41.3697 90.2095 34.7598 82.1597Z" fill="#A8D5FE"/>
<path fill-rule="evenodd" clip-rule="evenodd" d="M47.8248 97.9119L56.929 101.675L65.1359 106.629L66.2523 87.6964C66.2523 87.6964 76.3016 90.3387 77.8454 87.5225C79.1277 85.1856 77.4644 83.6984 78.2874 83.3029C78.7746 83.0683 79.5903 81.4399 78.5795 80.6285C79.3195 80.2889 79.2007 79.0703 79.0693 78.6946C78.8755 78.1443 78.3724 78.34 78.7228 77.4194C78.9903 76.7184 80.2394 76.7157 80.195 75.3151C80.1518 73.9145 76.3547 70.3038 75.7793 69.0198C75.4142 68.2076 75.1839 64.4163 74.4565 62.837C73.1894 60.0862 71.0118 58.121 68.7578 56.987C67.6197 56.4115 66.3952 56.0375 65.1359 55.8809C63.8629 55.7302 62.4764 55.6204 61.2001 55.6968C58.0932 55.8857 55.141 57.3763 52.7423 59.3838C50.702 61.0947 48.9352 63.257 48.0824 65.836C47.0217 69.0409 47.495 72.713 49.1662 75.6199C50.3118 77.6124 56.3509 79.8279 56.9244 82.0741L47.8248 97.9119Z" fill="#975D48"/>
<path fill-rule="evenodd" clip-rule="evenodd" d="M38.7422 115.242H73.2555C73.2555 115.242 64.2953 88.648 50.3572 93.0803L38.7422 115.242Z" fill="#181C21"/>
<path fill-rule="evenodd" clip-rule="evenodd" d="M42.0613 88.9886C46.3754 91.7162 51.038 95.0425 63.8219 95.0425V83.918C63.8219 81.352 61.3595 77.6267 60.5989 76.0427C60.1595 75.1248 59.8303 74.0147 60.2936 73.1112C60.5279 72.6571 60.9314 72.3216 61.3356 72.014C63.5922 70.299 66.1854 68.998 68.1062 66.8943C70.0124 64.805 71.1161 61.9758 71.1772 59.124C74.596 61.2543 75.3267 66.3972 75.3347 66.4211C76.2042 65.6342 77.225 64.7545 77.225 62.955C77.225 56.2369 61.7318 46.4598 49.167 57.0333C36.7369 67.4923 42.0613 88.9886 42.0613 88.9886Z" fill="#F0F1F2"/>
<path d="M121.044 74.3279H98.4778C97.7477 74.3279 97.1504 73.7142 97.1504 72.9641C97.1504 72.214 97.7477 71.6003 98.4778 71.6003H121.044C121.774 71.6003 122.372 72.214 122.372 72.9641C122.372 73.7142 121.774 74.3279 121.044 74.3279ZM121.044 67.5089H98.4778C97.7477 67.5089 97.1504 66.8951 97.1504 66.1451C97.1504 65.395 97.7477 64.7812 98.4778 64.7812H121.044C121.774 64.7812 122.372 65.395 122.372 66.1451C122.372 66.8951 121.774 67.5089 121.044 67.5089Z" fill="#E8E9EB"/>
<path d="M113.743 100.241H100.469C98.6106 100.241 97.1504 98.7407 97.1504 96.8314C97.1504 94.9221 98.6106 93.4219 100.469 93.4219H113.743C115.602 93.4219 117.062 94.9221 117.062 96.8314C117.062 98.7407 115.602 100.241 113.743 100.241Z" fill="#8CC5FA"/>
<path d="M118.645 53.8711C119.317 55.2059 119.931 56.5711 120.485 57.9625H99.1415C98.0132 57.9625 97.1504 57.076 97.1504 55.9168C97.1504 54.7576 98.0132 53.8711 99.1415 53.8711H118.645Z" fill="#E8E9EB"/>
<defs>
<filter id="filter0_d_2019_62321" x="30.1777" y="34.8672" width="99.1855" height="86.3711" filterUnits="userSpaceOnUse" color-interpolation-filters="sRGB">
<feFlood flood-opacity="0" result="BackgroundImageFix"/>
<feColorMatrix in="SourceAlpha" type="matrix" values="0 0 0 0 0 0 0 0 0 0 0 0 0 0 0 0 0 0 127 0" result="hardAlpha"/>
<feOffset dy="1"/>
<feGaussianBlur stdDeviation="2.5"/>
<feColorMatrix type="matrix" values="0 0 0 0 0 0 0 0 0 0 0 0 0 0 0 0 0 0 0.3 0"/>
<feBlend mode="normal" in2="BackgroundImageFix" result="effect1_dropShadow_2019_62321"/>
<feBlend mode="normal" in="SourceGraphic" in2="effect1_dropShadow_2019_62321" result="shape"/>
</filter>
</defs>
</svg>
