<svg width="160" height="160" viewBox="0 0 160 160" fill="none" xmlns="http://www.w3.org/2000/svg">
<g filter="url(#filter0_d_4074_12567)">
<circle cx="78" cy="82" r="64" fill="white"/>
</g>
<circle cx="78.0001" cy="82" r="56" fill="#F1F5F9"/>
<path d="M103.916 34.1311L97.5112 25.6481L60.3556 24L46.0001 46.25L57.8223 84.1574L48.5334 103.111L83.1556 113L89.9112 95.6944L92.5877 96.6443C96.9365 98.1875 101.584 98.6999 106.165 98.1412L109.362 97.7512C111.344 97.5094 112.926 95.9822 113.237 94.0095L113.309 93.5492C114.035 88.9432 114.4 84.2875 114.4 79.6246V74.2685L120.533 70.9436C121.315 70.5196 121.554 69.5093 121.044 68.78L109.333 52.0185V50.2954C109.333 44.4616 107.432 38.7868 103.916 34.1311Z" fill="#E9AA89"/>
<path d="M63.6933 81.12L64.7022 78.6299C64.9903 77.9188 65.1384 77.1588 65.1384 76.3915V76.3426C65.1384 74.4901 64.2772 72.7429 62.8079 71.6146L60.872 70.128C58.8908 68.6066 58.0683 66.0113 58.8115 63.6265L59.007 62.9993C60.0452 59.6677 63.7105 57.9364 66.9432 59.2507L73.2663 61.8213C74.2205 62.2093 75.2711 61.5354 75.3164 60.5063L75.7248 51.2316C75.9264 46.6552 79.0897 42.7457 83.5233 41.5938L87.1856 40.6422C99.4429 37.4574 108 26.3928 108 13.7285C108 12.8405 107.179 12.1801 106.312 12.3704L101.25 13.481C95.7155 14.6954 90.0003 14.8465 84.4092 13.9265L82.1721 13.5583C75.9299 12.5311 69.5408 12.8404 63.427 14.4656L62.7647 14.6416C54.9678 16.7142 47.877 20.8579 42.244 26.6335L38.8605 30.1027C32.6194 36.5018 29.5798 45.364 30.5794 54.2466L30.8813 56.9295C31.8239 65.3054 36.2687 72.8906 43.1152 77.8068L47.9345 81.2674C49.8367 82.6333 51.2945 84.5292 52.126 86.7184L52.2078 86.9337C52.8322 88.5776 54.7367 89.3265 56.3136 88.548L57.1995 88.1107C60.1478 86.6552 62.4587 84.1674 63.6933 81.12Z" fill="#492F03"/>
<path fill-rule="evenodd" clip-rule="evenodd" d="M36.9008 120.038L52.1921 94.1652C52.5828 93.5041 53.4119 93.2482 54.1073 93.574L79.388 105.417L82.5817 110.258C85.5748 114.795 87.5391 119.932 88.3367 125.308L90.0277 136.705C86.1534 137.553 82.1289 138 78.0001 138C61.7574 138 47.1298 131.085 36.9008 120.038Z" fill="#93C5FD"/>
<path d="M44.6692 103.289L51.3302 93.9814C51.7397 93.4092 52.4937 93.2014 53.1385 93.4829L79.0001 104.776L77.512 116L74.2829 115.902C63.5495 115.576 53.2215 111.727 44.8919 104.95C44.3907 104.542 44.2931 103.815 44.6692 103.289Z" fill="#3B82F6"/>
<g filter="url(#filter1_d_4074_12567)">
<circle cx="122" cy="124" r="22" fill="#7CE6AA"/>
<path fill-rule="evenodd" clip-rule="evenodd" d="M124 113C124 111.895 123.105 111 122 111C120.895 111 120 111.895 120 113V122H111C109.895 122 109 122.895 109 124C109 125.105 109.895 126 111 126H120V135C120 136.105 120.895 137 122 137C123.105 137 124 136.105 124 135V126H133C134.105 126 135 125.105 135 124C135 122.895 134.105 122 133 122H124V113Z" fill="white"/>
</g>
<defs>
<filter id="filter0_d_4074_12567" x="5" y="12" width="146" height="146" filterUnits="userSpaceOnUse" color-interpolation-filters="sRGB">
<feFlood flood-opacity="0" result="BackgroundImageFix"/>
<feColorMatrix in="SourceAlpha" type="matrix" values="0 0 0 0 0 0 0 0 0 0 0 0 0 0 0 0 0 0 127 0" result="hardAlpha"/>
<feOffset dy="3"/>
<feGaussianBlur stdDeviation="4.5"/>
<feComposite in2="hardAlpha" operator="out"/>
<feColorMatrix type="matrix" values="0 0 0 0 0 0 0 0 0 0 0 0 0 0 0 0 0 0 0.13 0"/>
<feBlend mode="normal" in2="BackgroundImageFix" result="effect1_dropShadow_4074_12567"/>
<feBlend mode="normal" in="SourceGraphic" in2="effect1_dropShadow_4074_12567" result="shape"/>
</filter>
<filter id="filter1_d_4074_12567" x="95" y="100" width="54" height="54" filterUnits="userSpaceOnUse" color-interpolation-filters="sRGB">
<feFlood flood-opacity="0" result="BackgroundImageFix"/>
<feColorMatrix in="SourceAlpha" type="matrix" values="0 0 0 0 0 0 0 0 0 0 0 0 0 0 0 0 0 0 127 0" result="hardAlpha"/>
<feOffset dy="3"/>
<feGaussianBlur stdDeviation="2.5"/>
<feComposite in2="hardAlpha" operator="out"/>
<feColorMatrix type="matrix" values="0 0 0 0 0.0588235 0 0 0 0 0.0901961 0 0 0 0 0.164706 0 0 0 0.15 0"/>
<feBlend mode="normal" in2="BackgroundImageFix" result="effect1_dropShadow_4074_12567"/>
<feBlend mode="normal" in="SourceGraphic" in2="effect1_dropShadow_4074_12567" result="shape"/>
</filter>
</defs>
</svg>
