<svg width="160" height="160" viewBox="0 0 160 160" fill="none" xmlns="http://www.w3.org/2000/svg">
<circle cx="79" cy="79" r="65" fill="#F1F5F9"/>
<g filter="url(#filter0_d_4074_12307)">
<path d="M30 24C30 21.7909 31.7909 20 34 20H124C126.209 20 128 21.7909 128 24V136C128 138.209 126.209 140 124 140H34C31.7909 140 30 138.209 30 136V24Z" fill="white"/>
</g>
<path d="M36 28C36 26.8954 36.8954 26 38 26H120C121.105 26 122 26.8954 122 28V132C122 133.105 121.105 134 120 134H38C36.8954 134 36 133.105 36 132V28Z" fill="#E2E8F0"/>
<path d="M94 120C94 118.343 95.3431 117 97 117H109C110.657 117 112 118.343 112 120C112 121.657 110.657 123 109 123H97C95.3431 123 94 121.657 94 120Z" fill="#93C5FD"/>
<path fill-rule="evenodd" clip-rule="evenodd" d="M91 16C89.8954 16 89.0209 15.0955 88.8025 14.0128C87.8809 9.44193 83.8424 6 79 6C74.1576 6 70.1191 9.44193 69.1975 14.0128C68.9791 15.0955 68.1046 16 67 16H54C49.5817 16 46 19.5817 46 24V29C46 30.1046 46.8954 31 48 31H112C113.105 31 114 30.1046 114 29V24C114 19.5817 110.418 16 106 16H91Z" fill="#93C5FD"/>
<circle cx="79" cy="16" r="5" fill="#3B82F6"/>
<path d="M58 86C58 84.8954 58.8954 84 60 84H110C111.105 84 112 84.8954 112 86C112 87.1046 111.105 88 110 88H60C58.8954 88 58 87.1046 58 86Z" fill="white"/>
<path d="M58 96C58 94.8954 58.8954 94 60 94H110C111.105 94 112 94.8954 112 96C112 97.1046 111.105 98 110 98H60C58.8954 98 58 97.1046 58 96Z" fill="white"/>
<path d="M58 106C58 104.895 58.8954 104 60 104H110C111.105 104 112 104.895 112 106C112 107.105 111.105 108 110 108H60C58.8954 108 58 107.105 58 106Z" fill="white"/>
<path d="M48 86C48 84.3431 49.3431 83 51 83C52.6569 83 54 84.3431 54 86C54 87.6569 52.6569 89 51 89C49.3431 89 48 87.6569 48 86Z" fill="#64748B"/>
<path d="M48 96C48 94.3431 49.3431 93 51 93C52.6569 93 54 94.3431 54 96C54 97.6569 52.6569 99 51 99C49.3431 99 48 97.6569 48 96Z" fill="#64748B"/>
<path d="M48 106C48 104.343 49.3431 103 51 103C52.6569 103 54 104.343 54 106C54 107.657 52.6569 109 51 109C49.3431 109 48 107.657 48 106Z" fill="#64748B"/>
<circle cx="79" cy="57" r="19" fill="#93C5FD"/>
<path fill-rule="evenodd" clip-rule="evenodd" d="M71.9816 61.6103C72.6618 61.6103 73.2132 61.0589 73.2132 60.3788V55.3036H76.2431L76.4238 55.2842L80.1133 60.6465L76.3149 66.2215C75.8003 66.9768 76.3412 67.9998 77.2551 67.9998C77.6412 67.9998 78.0009 67.804 78.2105 67.4798L81.5764 62.2737H81.6429L85.0321 67.4537C85.255 67.7945 85.6347 67.9998 86.0419 67.9998C87.0139 67.9998 87.587 66.9094 87.0359 66.1088L83.2612 60.6259L86.9006 55.3999C87.4227 54.6501 86.8862 53.6227 85.9725 53.6227C85.5943 53.6227 85.2412 53.8117 85.0315 54.1264L81.7981 58.9781H81.7537L79.0835 54.921C79.8928 54.613 80.5155 54.1367 80.9514 53.4921C81.46 52.7466 81.7144 51.8147 81.7144 50.6965C81.7144 49.2503 81.322 48.1097 80.5373 47.2748C79.7525 46.4249 78.6772 46 77.3112 46H72.75C71.6454 46 70.75 46.8954 70.75 48V60.3788C70.75 61.0589 71.3014 61.6103 71.9816 61.6103ZM78.5973 52.687C78.2485 53.015 77.7617 53.179 77.1368 53.179H73.2132V48.2141H77.1368C77.7617 48.2141 78.2485 48.3855 78.5973 48.7285C78.946 49.0565 79.1204 49.5336 79.1204 50.1598V51.2333C79.1204 51.8595 78.946 52.344 78.5973 52.687Z" fill="white"/>
<g filter="url(#filter1_d_4074_12307)">
<path d="M12 116C12 114.343 13.3431 113 15 113H63C64.6569 113 66 114.343 66 116V147C66 148.657 64.6569 150 63 150H15C13.3431 150 12 148.657 12 147V116Z" fill="#93C5FD"/>
<path d="M12 120H66V127H12V120Z" fill="#3B82F6"/>
<path d="M17.6154 141.936C17.6154 140.626 18.6772 139.564 19.9872 139.564H30.423C31.733 139.564 32.7948 140.626 32.7948 141.936C32.7948 143.246 31.733 144.308 30.423 144.308H19.9872C18.6772 144.308 17.6154 143.246 17.6154 141.936Z" fill="white"/>
<path d="M36.5897 141.936C36.5897 140.626 37.6516 139.564 38.9615 139.564H43.7051C45.015 139.564 46.0769 140.626 46.0769 141.936C46.0769 143.246 45.015 144.308 43.7051 144.308H38.9615C37.6516 144.308 36.5897 143.246 36.5897 141.936Z" fill="white"/>
</g>
<g filter="url(#filter2_d_4074_12307)">
<circle cx="124" cy="30" r="22" fill="#7CE6AA"/>
<path d="M124.311 43C123.461 43 122.773 42.3115 122.773 41.4621V40.3155C121.199 40.1949 119.873 39.843 118.796 39.2599C118.228 38.9415 117.7 38.584 117.212 38.1872C116.493 37.6022 116.563 36.5287 117.256 35.9137C117.951 35.2971 119.005 35.382 119.742 35.9475C119.997 36.143 120.262 36.3221 120.536 36.4849C121.282 36.9072 122.12 37.1787 123.052 37.2993V31.1763C120.774 30.7138 119.128 30.0101 118.113 29.065C117.118 28.0998 116.621 26.8732 116.621 25.3851C116.621 23.7765 117.16 22.4896 118.237 21.5244C119.314 20.5391 120.826 19.9358 122.773 19.7146V18.5379C122.773 17.6885 123.461 17 124.311 17C125.16 17 125.849 17.6885 125.849 18.5379V19.7146C127.153 19.8554 128.272 20.1671 129.204 20.6497C129.664 20.8828 130.095 21.1581 130.498 21.4757C131.222 22.0477 131.118 23.1206 130.412 23.7145C129.708 24.3058 128.664 24.2014 127.906 23.6822C127.823 23.6252 127.738 23.5694 127.65 23.5151C127.091 23.1531 126.397 22.8917 125.569 22.7309V28.3411C127.785 28.8438 129.411 29.5476 130.447 30.4524C131.482 31.3372 132 32.5638 132 34.1322C132 35.6806 131.482 37.0178 130.447 38.1439C129.411 39.2498 127.878 39.9435 125.849 40.2251V41.4621C125.849 42.3115 125.16 43 124.311 43ZM120.381 25.2343C120.381 25.9381 120.588 26.4811 121.002 26.8631C121.437 27.2452 122.12 27.5568 123.052 27.7981V22.7007C121.271 23.0023 120.381 23.8469 120.381 25.2343ZM128.272 34.4037C128.272 33.8005 128.075 33.2776 127.682 32.8353C127.309 32.3728 126.605 32.0008 125.569 31.7193V37.2691C126.439 37.0882 127.102 36.7463 127.557 36.2436C128.034 35.7208 128.272 35.1075 128.272 34.4037Z" fill="white"/>
</g>
<defs>
<filter id="filter0_d_4074_12307" x="22" y="14" width="114" height="136" filterUnits="userSpaceOnUse" color-interpolation-filters="sRGB">
<feFlood flood-opacity="0" result="BackgroundImageFix"/>
<feColorMatrix in="SourceAlpha" type="matrix" values="0 0 0 0 0 0 0 0 0 0 0 0 0 0 0 0 0 0 127 0" result="hardAlpha"/>
<feOffset dy="2"/>
<feGaussianBlur stdDeviation="4"/>
<feComposite in2="hardAlpha" operator="out"/>
<feColorMatrix type="matrix" values="0 0 0 0 0.0588235 0 0 0 0 0.0901961 0 0 0 0 0.164706 0 0 0 0.15 0"/>
<feBlend mode="normal" in2="BackgroundImageFix" result="effect1_dropShadow_4074_12307"/>
<feBlend mode="normal" in="SourceGraphic" in2="effect1_dropShadow_4074_12307" result="shape"/>
</filter>
<filter id="filter1_d_4074_12307" x="7.25641" y="111.103" width="63.4872" height="46.4872" filterUnits="userSpaceOnUse" color-interpolation-filters="sRGB">
<feFlood flood-opacity="0" result="BackgroundImageFix"/>
<feColorMatrix in="SourceAlpha" type="matrix" values="0 0 0 0 0 0 0 0 0 0 0 0 0 0 0 0 0 0 127 0" result="hardAlpha"/>
<feOffset dy="2.84615"/>
<feGaussianBlur stdDeviation="2.37179"/>
<feComposite in2="hardAlpha" operator="out"/>
<feColorMatrix type="matrix" values="0 0 0 0 0.0588235 0 0 0 0 0.0901961 0 0 0 0 0.164706 0 0 0 0.15 0"/>
<feBlend mode="normal" in2="BackgroundImageFix" result="effect1_dropShadow_4074_12307"/>
<feBlend mode="normal" in="SourceGraphic" in2="effect1_dropShadow_4074_12307" result="shape"/>
</filter>
<filter id="filter2_d_4074_12307" x="97" y="6" width="54" height="54" filterUnits="userSpaceOnUse" color-interpolation-filters="sRGB">
<feFlood flood-opacity="0" result="BackgroundImageFix"/>
<feColorMatrix in="SourceAlpha" type="matrix" values="0 0 0 0 0 0 0 0 0 0 0 0 0 0 0 0 0 0 127 0" result="hardAlpha"/>
<feOffset dy="3"/>
<feGaussianBlur stdDeviation="2.5"/>
<feComposite in2="hardAlpha" operator="out"/>
<feColorMatrix type="matrix" values="0 0 0 0 0.0588235 0 0 0 0 0.0901961 0 0 0 0 0.164706 0 0 0 0.15 0"/>
<feBlend mode="normal" in2="BackgroundImageFix" result="effect1_dropShadow_4074_12307"/>
<feBlend mode="normal" in="SourceGraphic" in2="effect1_dropShadow_4074_12307" result="shape"/>
</filter>
</defs>
</svg>
